<svg width="891" height="404" viewBox="0 0 891 404" fill="none" xmlns="http://www.w3.org/2000/svg">
<rect width="891" height="404" rx="15" fill="#0D1117"/>
<path d="M149.72 228V178.16H165.72C169.453 178.16 172.467 178.8 174.76 180.08C177.053 181.36 178.733 183.067 179.8 185.2C180.92 187.28 181.48 189.627 181.48 192.24C181.48 194.8 180.947 197.12 179.88 199.2C178.813 201.28 177.16 202.933 174.92 204.16C172.68 205.387 169.747 206 166.12 206H155.48V228H149.72ZM155.48 201.04H165.48C169.107 201.04 171.72 200.267 173.32 198.72C174.92 197.12 175.72 195.013 175.72 192.4C175.72 189.947 174.92 187.84 173.32 186.08C171.72 184.32 169.133 183.44 165.56 183.44H155.48V201.04ZM230.28 178.16H236.84V178.72C236.52 179.04 236.307 179.387 236.2 179.76C236.147 180.133 236.12 180.773 236.12 181.68V223.2H260.12V228H230.28V178.16ZM337.96 228L332.92 213.44H316.84L311.8 228H306.28L324.68 177.28H325.32L343.72 228H337.96ZM324.92 190.08L318.36 209.12H331.48L324.92 190.08ZM401.64 228V183.12H387.48V178.08H422.04V183.12H407.32V228H401.64ZM471.24 228V178.08H499.96V182.96H476.84V198.64H495.48V203.52H476.84V228H471.24ZM565 228.88C559.293 228.88 554.893 226.667 551.8 222.24C548.707 217.813 547.16 211.52 547.16 203.36C547.16 195.467 548.707 189.253 551.8 184.72C554.893 180.133 559.293 177.84 565 177.84C570.707 177.84 575.107 180.133 578.2 184.72C581.293 189.253 582.84 195.467 582.84 203.36C582.84 211.52 581.293 217.813 578.2 222.24C575.107 226.667 570.707 228.88 565 228.88ZM565 224C568.787 224 571.747 222.213 573.88 218.64C576.013 215.067 577.08 209.973 577.08 203.36C577.08 197.067 576.013 192.053 573.88 188.32C571.747 184.587 568.787 182.72 565 182.72C561.213 182.72 558.253 184.587 556.12 188.32C553.987 192.053 552.92 197.067 552.92 203.36C552.92 209.973 553.987 215.067 556.12 218.64C558.253 222.213 561.213 224 565 224ZM629.48 228V178.16H644.2C650.067 178.16 654.28 179.467 656.84 182.08C659.453 184.693 660.76 188.133 660.76 192.4C660.76 194.267 660.333 196.133 659.48 198C658.68 199.867 657.507 201.493 655.96 202.88C654.467 204.267 652.68 205.227 650.6 205.76L662.12 228H655.88L644.84 206H635.16V228H629.48ZM635.16 201.04H644.84C648.413 201.04 651 200.267 652.6 198.72C654.2 197.12 655 195.013 655 192.4C655 189.893 654.2 187.787 652.6 186.08C651 184.32 648.413 183.44 644.84 183.44H635.16V201.04ZM708.28 228V178.16H712.68L725 202.56L737.56 178.08H741.8V228H736.52V190.4L725.72 210.48H723.56L713.48 190.64V228H708.28Z" fill="white"/>
</svg>
