<svg width="2892" height="381" viewBox="0 0 2892 381" fill="none" xmlns="http://www.w3.org/2000/svg">
<path d="M1837.5 368C1936.08 368 2016 288.531 2016 190.5C2016 92.4695 1936.08 13 1837.5 13C1738.92 13 1659 92.4695 1659 190.5C1659 288.531 1738.92 368 1837.5 368Z" stroke="black" stroke-width="25"/>
<path d="M2120 377V228.484L2284.13 225.771C2409.42 223.7 2407.24 30.2351 2277.17 30.1665L2120 30.0839V4L2282.02 4.52153C2341.71 4.71387 2401.03 50.8465 2403.59 117.956C2405.94 179.48 2382.38 222.763 2320.09 244.326L2407 377L2378.4 376.999L2295.59 254.384H2148.44L2148.9 376.999L2120 377Z" fill="#080908"/>
<path d="M645 377L816.719 4H846.93L1019 377H984.48L832.255 41.4068L679.949 377H645Z" fill="black"/>
<path d="M1004 4H1300V30.0839H1168.68V377H1137.93V30.0839H1004V4Z" fill="black"/>
<path d="M1346 3V31.7181H1591.66V3H1346Z" fill="black"/>
<path d="M1346 176V204.718H1591.66V176H1346Z" fill="black"/>
<path d="M1375 176H1346V378H1375V176" fill="black"/>
<path d="M2513 377V4H2539.8L2699.91 293.407L2864.66 4H2892V377H2864.66V64.7084L2706.1 329.527H2693.14L2539.8 65.4093V377H2513Z" fill="black"/>
<path d="M367 5V377H610V348.905H398.221V5H367" fill="black"/>
<path d="M0.000328864 377V228.882L163.67 226.177C288.619 224.111 286.447 31.1648 156.733 31.0964L0 31.0138V5L161.571 5.51997C221.095 5.7118 280.251 51.7209 282.806 118.651C286.999 206.202 222.651 252.878 159.891 253.471L28.3644 254.712L28.8174 376.999L0.000328864 377Z" fill="black"/>
</svg>
